<?xml version="1.0" encoding="utf-8"?>
<!-- Generator: Adobe Illustrator 27.8.0, SVG Export Plug-In . SVG Version: 6.00 Build 0)  -->
<svg version="1.1" id="Layer_1" xmlns="http://www.w3.org/2000/svg" xmlns:xlink="http://www.w3.org/1999/xlink" x="0px" y="0px"
	 viewBox="0 0 20 20" style="enable-background:new 0 0 20 20;" xml:space="preserve">
<style type="text/css">
	.st0{display:none;}
	.st1{display:inline;fill:none;}
	.st2{display:inline;fill:#010101;}
	.st3{fill:#010101;}
	.st4{display:none;fill-rule:evenodd;clip-rule:evenodd;fill:#010101;}
</style>
<g>
	<g class="st0">
		<path class="st1" d="M17.71,1H2.28C1.57,1,1,1.58,1,2.3v15.4C1,18.42,1.57,19,2.28,19h15.43c0.71,0,1.29-0.58,1.29-1.3V2.3
			C19,1.58,18.42,1,17.71,1z"/>
		<polygon class="st2" points="6.44,16.43 3.77,16.43 3.77,7.84 6.44,7.84 6.44,16.43 		"/>
		<path class="st2" d="M5.11,6.67c-2.02-0.01-2.02-3.08,0-3.09C7.14,3.61,7.14,6.63,5.11,6.67z"/>
		<path class="st2" d="M16.44,16.43h-2.67v-4.18c0-1-0.02-2.28-1.39-2.28c-1.39,0-1.6,1.08-1.6,2.21v4.25H8.12V7.84h2.56v1.17h0.04
			c0.36-0.67,1.23-1.39,2.53-1.39C17.85,7.48,16.11,13.59,16.44,16.43z"/>
	</g>
	<path class="st3" d="M10,5.39c-2.55,0-4.61,2.06-4.61,4.61s2.06,4.61,4.61,4.61s4.61-2.06,4.61-4.61S12.56,5.39,10,5.39z M10,13
		c-1.65,0-3-1.35-3-3s1.35-3,3-3s3,1.35,3,3S11.65,13,10,13L10,13z M15.88,5.2c0,0.6-0.48,1.08-1.08,1.08
		c-0.6,0-1.08-0.48-1.08-1.08s0.48-1.08,1.08-1.08S15.88,4.6,15.88,5.2z M18.94,6.29c-0.07-1.44-0.4-2.72-1.45-3.77
		c-1.05-1.05-2.33-1.38-3.77-1.45c-1.49-0.08-5.94-0.08-7.42,0c-1.44,0.07-2.71,0.4-3.77,1.45S1.14,4.84,1.06,6.29
		c-0.08,1.49-0.08,5.94,0,7.42c0.07,1.44,0.4,2.72,1.45,3.77c1.06,1.05,2.33,1.38,3.77,1.45c1.49,0.08,5.94,0.08,7.42,0
		c1.44-0.07,2.72-0.4,3.77-1.45c1.05-1.05,1.38-2.33,1.45-3.77C19.02,12.22,19.02,7.78,18.94,6.29L18.94,6.29z M17.02,15.3
		c-0.31,0.79-0.92,1.39-1.71,1.71c-1.18,0.47-4,0.36-5.3,0.36s-4.12,0.1-5.3-0.36C3.91,16.7,3.3,16.1,2.99,15.3
		c-0.47-1.18-0.36-4-0.36-5.3s-0.1-4.12,0.36-5.3C3.3,3.91,3.91,3.3,4.7,2.98c1.18-0.47,4-0.36,5.3-0.36s4.12-0.1,5.3,0.36
		C16.09,3.3,16.7,3.9,17.02,4.7c0.47,1.18,0.36,4,0.36,5.3S17.49,14.12,17.02,15.3z"/>
	<path class="st4" d="M10,1c4.97,0,9,4.03,9,9s-4.03,9-9,9s-9-4.03-9-9C1,5.03,5.03,1,10,1L10,1z M17.66,7.39h-3.94
		c0.21,1.69,0.21,3.52,0,5.21h3.94C18.23,10.92,18.23,9.08,17.66,7.39L17.66,7.39z M12.8,7.39H7.2c-0.22,1.68-0.22,3.53,0,5.21h5.6
		C13.02,10.92,13.02,9.08,12.8,7.39L12.8,7.39z M6.28,7.39H2.34c-0.57,1.68-0.57,3.53,0,5.21h3.94C6.07,10.91,6.07,9.09,6.28,7.39
		L6.28,7.39z M2.71,6.48h3.71C6.69,4.96,7.2,3.27,8.06,2.15C5.71,2.72,3.76,4.33,2.71,6.48L2.71,6.48z M7.34,6.48h5.31
		C12.37,4.96,11.47,1.91,10,1.91S7.63,4.96,7.34,6.48L7.34,6.48z M13.58,6.48h3.71c-1.04-2.15-3-3.76-5.35-4.34
		C12.8,3.27,13.31,4.96,13.58,6.48L13.58,6.48z M17.29,13.52h-3.71c-0.27,1.52-0.78,3.22-1.64,4.34
		C14.29,17.28,16.24,15.67,17.29,13.52L17.29,13.52z M12.65,13.52H7.34c0.28,1.53,1.18,4.57,2.66,4.57S12.37,15.04,12.65,13.52
		L12.65,13.52z M6.42,13.52H2.71c1.04,2.15,3,3.76,5.35,4.34C7.2,16.73,6.69,15.04,6.42,13.52z"/>
	<path class="st4" d="M2.88,3.56h14.24c1.04,0,1.88,0.85,1.88,1.88v9.11c0,1.04-0.85,1.88-1.88,1.88H2.88
		C1.85,16.44,1,15.59,1,14.56V5.44c0-0.52,0.21-0.99,0.55-1.33l0,0C1.89,3.78,2.36,3.56,2.88,3.56L2.88,3.56z M17.28,15.51
		l-5.85-4.92c-0.82,0.68-2.03,0.68-2.85,0l-5.85,4.92C2.89,15.54,17.11,15.54,17.28,15.51L17.28,15.51z M12.13,10l5.88,4.94
		c0.05-0.12,0.08-0.25,0.08-0.38V5.44c0-0.14-0.03-0.26-0.08-0.38L12.13,10L12.13,10z M1.99,14.94L7.87,10L1.99,5.06
		C1.94,5.18,1.91,5.31,1.91,5.44v9.11C1.91,14.69,1.94,14.82,1.99,14.94L1.99,14.94z M2.72,4.49l6.43,5.4c0.48,0.4,1.22,0.4,1.7,0
		l6.43-5.4L2.72,4.49z"/>
	<path class="st4" d="M16.28,18.99C8.14,18.26,1.74,11.85,1.01,3.72c-0.12-1.35,0.75-2.57,2.22-2.7v0C5.75,1.01,6.12,0.71,6.96,3.2
		l0,0l0.67,1.98C8.2,6.86,6.51,7.68,6.41,8.6c-0.02,0.15,0,0.29,0.06,0.39c1.36,2.19,2.35,3.18,4.54,4.54
		c0.93,0.58,1.91-1.81,3.81-1.16l1.98,0.67l0,0c2.42,0.82,2.19,1.17,2.2,3.44c0,0.1,0,0.19-0.01,0.29h0
		C18.85,18.24,17.63,19.11,16.28,18.99L16.28,18.99z M6.51,13.49c2.56,2.56,6,4.25,9.85,4.6c0.96,0.09,1.73-0.54,1.73-1.6l-0.01-1.5
		c0-0.55-0.76-0.81-1.45-1.04l-2.11-0.71c-1.14-0.39-1.71,1.12-3.02,1.27c-0.34,0.04-0.69-0.02-0.97-0.19
		c-2.31-1.44-3.39-2.51-4.83-4.83C5.34,8.89,5.49,8.06,5.88,7.53c0.5-0.67,1.15-1.3,0.89-2.06L6.06,3.37
		c-0.23-0.7-0.49-1.45-1.04-1.45l-1.7,0c-0.9,0.04-1.47,0.84-1.4,1.72C2.26,7.48,3.95,10.92,6.51,13.49z"/>
</g>
</svg>
